<svg width="58" height="58" viewBox="0 0 58 58" fill="none" xmlns="http://www.w3.org/2000/svg">
<g clip-path="url(#clip0_48703_10)">
<path fill-rule="evenodd" clip-rule="evenodd" d="M37.2924 45.8456C37.2927 46.0124 37.26 46.1776 37.1962 46.3317C37.1325 46.4858 37.039 46.6259 36.921 46.7438C36.8031 46.8617 36.6631 46.9553 36.5089 47.019C36.3548 47.0827 36.1896 47.1154 36.0228 47.1152L21.6767 47.1152C21.5099 47.1154 21.3447 47.0827 21.1906 47.019C21.0365 46.9553 20.8964 46.8617 20.7785 46.7438C20.6605 46.6259 20.567 46.4858 20.5033 46.3317C20.4396 46.1776 20.4069 46.0124 20.4071 45.8456L20.4071 39.024L15.9526 31.5963C15.6133 31.0309 15.4268 30.3869 15.4114 29.7277C15.396 29.0684 15.5522 28.4165 15.8647 27.8358L28.8498 3.71822L41.8366 27.8376C42.1485 28.4178 42.3043 29.0691 42.2889 29.7277C42.2735 30.3862 42.0874 31.0295 41.7487 31.5945L37.2924 39.0204L37.2924 45.8456ZM35.3055 37.4029L39.5735 30.2908C39.6868 30.1021 39.7491 29.8871 39.7541 29.667C39.7591 29.4469 39.7068 29.2292 39.6022 29.0355L28.8515 9.06753L18.0973 29.0391C17.994 29.2323 17.9425 29.449 17.9478 29.6681C17.9532 29.8871 18.0152 30.1011 18.1278 30.289L22.3958 37.4047L35.3073 37.4047L35.3055 37.4029Z" fill="#00C4F0"/>
<path fill-rule="evenodd" clip-rule="evenodd" d="M28.7423 9.27026L27.0566 26.1198C26.7019 26.4744 26.4604 26.9263 26.3625 27.4183C26.2647 27.9102 26.3149 28.4201 26.5069 28.8835C26.6988 29.3469 27.0239 29.743 27.4409 30.0217C27.858 30.3004 28.3483 30.4491 28.8499 30.4491C29.3515 30.4491 29.8418 30.3004 30.2588 30.0217C30.6759 29.743 31.0009 29.3469 31.1929 28.8835C31.3848 28.4201 31.4351 27.9102 31.3372 27.4183C31.2393 26.9263 30.9978 26.4744 30.6431 26.1198L28.9575 9.27026L28.8499 9.06941L28.7423 9.27026V9.27026Z" fill="#00C4F0"/>
</g>
<defs>
<clipPath id="clip0_48703_10">
<rect width="40.5769" height="40.5769" fill="white" transform="translate(57.9847 29.2667) rotate(135)"/>
</clipPath>
</defs>
</svg>
