<svg width="42" height="41" viewBox="0 0 42 41" fill="none" xmlns="http://www.w3.org/2000/svg">
<path d="M12.9484 28.7306L15.0618 26.0897L8.25842 20.6474L15.0618 15.205L12.9484 12.5641L4.49491 19.3269C4.29684 19.4853 4.13694 19.6862 4.02705 19.9148C3.91716 20.1434 3.86011 20.3937 3.86011 20.6474C3.86011 20.901 3.91716 21.1513 4.02705 21.3799C4.13694 21.6085 4.29684 21.8094 4.49491 21.9678L12.9484 28.7306ZM28.5875 12.5641L26.4741 15.205L33.2775 20.6474L26.4741 26.0897L28.5875 28.7306L37.041 21.9678C37.2391 21.8094 37.399 21.6085 37.5089 21.3799C37.6187 21.1513 37.6758 20.901 37.6758 20.6474C37.6758 20.3937 37.6187 20.1434 37.5089 19.9148C37.399 19.6862 37.2391 19.4853 37.041 19.3269L28.5875 12.5641ZM25.7995 5.79621L19.0367 36.2289L15.7347 35.4951L22.4975 5.06244L25.7995 5.79621Z" fill="#00C4F0"/>
</svg>
