<svg width="41" height="41" viewBox="0 0 41 41" fill="none" xmlns="http://www.w3.org/2000/svg">
<g clip-path="url(#clip0_48703_38)">
<path d="M0.197388 10.5032C0.197388 10.5032 0.197388 5.43109 5.2695 5.43109H35.7022C35.7022 5.43109 40.7743 5.43109 40.7743 10.5032V25.7196C40.7743 25.7196 40.7743 30.7917 35.7022 30.7917H25.558C25.558 32.4832 25.7685 33.7512 26.192 34.5958H28.094C28.4303 34.5958 28.7529 34.7293 28.9907 34.9672C29.2285 35.205 29.3621 35.5275 29.3621 35.8638C29.3621 36.2001 29.2285 36.5226 28.9907 36.7604C28.7529 36.9982 28.4303 37.1318 28.094 37.1318H12.8777C12.5414 37.1318 12.2188 36.9982 11.981 36.7604C11.7432 36.5226 11.6096 36.2001 11.6096 35.8638C11.6096 35.5275 11.7432 35.205 11.981 34.9672C12.2188 34.7293 12.5414 34.5958 12.8777 34.5958H14.7797C15.2032 33.7512 15.4137 32.4832 15.4137 30.7917H5.2695C5.2695 30.7917 0.197388 30.7917 0.197388 25.7196V10.5032ZM3.7428 8.33488C3.46422 8.52882 3.24197 8.79308 3.09864 9.10077C2.88246 9.54742 2.75827 10.033 2.73345 10.5286V25.7196C2.73345 26.5438 2.93126 26.9927 3.10117 27.2463C3.2787 27.5125 3.5323 27.723 3.86706 27.8904C4.29448 28.0975 4.75765 28.2206 5.23146 28.2531L5.29486 28.2556H35.7022C36.5264 28.2556 36.9753 28.0578 37.2289 27.8879C37.5075 27.6939 37.7297 27.4297 37.8731 27.122C38.0801 26.6946 38.2032 26.2314 38.2357 25.7576L38.2383 25.6942V10.5032C38.2383 9.67899 38.0404 9.23011 37.8705 8.9765C37.6767 8.69785 37.4124 8.47557 37.1046 8.33234C36.658 8.11617 36.1724 7.99198 35.6768 7.96715H5.2695C4.44528 7.96715 3.9964 8.16496 3.7428 8.33488V8.33488Z" fill="#00C4F0"/>
</g>
<defs>
<clipPath id="clip0_48703_38">
<rect width="40.5769" height="40.5769" fill="white" transform="translate(0.197388 0.358948)"/>
</clipPath>
</defs>
</svg>
