<svg width="41" height="41" viewBox="0 0 41 41" fill="none" xmlns="http://www.w3.org/2000/svg">
<path d="M20.2885 3H3.38141C2.4846 3 1.62453 3.35625 0.990392 3.99039C0.356255 4.62453 0 5.4846 0 6.38141V23.2885H3.38141V6.38141H20.2885V3ZM27.0513 9.76282H10.1442C9.24742 9.76282 8.38735 10.1191 7.75321 10.7532C7.11907 11.3873 6.76282 12.2474 6.76282 13.1442V30.0513H10.1442V13.1442H27.0513V9.76282ZM30.4327 16.5256H16.9071C16.0102 16.5256 15.1502 16.8819 14.516 17.516C13.8819 18.1502 13.5256 19.0102 13.5256 19.9071V33.4327C13.5256 34.3295 13.8819 35.1896 14.516 35.8237C15.1502 36.4578 16.0102 36.8141 16.9071 36.8141H30.4327C32.2925 36.8141 33.8141 35.2925 33.8141 33.4327V19.9071C33.8141 18.0473 32.2925 16.5256 30.4327 16.5256Z" fill="#00C4F0"/>
</svg>
